<svg xmlns="http://www.w3.org/2000/svg" id="Layer_1" height="512" viewBox="0 0 68 68" width="512"><g><path d="m64.28877 31.05777-2.40356-1.46948v-10.31848c0-1.96997-1.6001-3.57996-3.58008-3.57996h-19.15405l-16.33838-9.98853c-1.68359-1.0293-3.89014-.49707-4.91895 1.18555l-5.38147 8.80298h-2.81713c-1.96997 0-3.57996 1.60999-3.57996 3.57996v6.88434l-3.58814 5.86945c-1.0293 1.68192-.50562 3.88474 1.18604 4.91797l2.4021 1.46857v10.3197c0 1.96997 1.60999 3.58002 3.57996 3.58002h19.1554l16.33911 9.98914c.56885.34766 1.2085.52637 1.85889.52637.28174 0 .56543-.0332.8457-.10059.9292-.22461 1.71533-.79688 2.21338-1.61133l5.38208-8.80359h2.81543c1.97998 0 3.58008-1.61005 3.58008-3.58002v-6.8808l3.59008-5.87231c1.0288-1.68263.49658-3.88966-1.18653-4.91896zm-3.90356-11.78796v6.02527h-19.63525l.10767-.25977c.65088-1.57227-.09814-3.38086-1.66992-4.0332l-1.66455-.68945c-1.97461-.81641-4.14844-.81738-6.12305.00098-.59692.24713-1.14795.56738-1.65723.93848v-4.06226h28.56226c1.15002-.00001 2.08007.92998 2.08007 2.07995zm-36.22632 31.53894v-16.56226l1.64648-1.64667c.50167.0359.4964.01609.79077-.00018l1.64673 1.64673v16.56238zm15.31299-26.34766-.68945 1.66406c-.66455 1.60449-1.91357 2.85352-3.51758 3.51758-1.60449.66602-3.37109.66602-4.97461 0l-.08765-.03625c.00073-.00232.00195-.00433.00256-.00665.19785-.66557.20323-1.35501.12-1.75l4.76001-1.96997c.38-.16003.56006-.60004.40002-.98004-.16003-.39001-.59998-.56-.9801-.40997l-4.6499 1.92999c-.31836-.56702-.76599-1.04401-1.29236-1.41327 1.08374-2.36993 3.43079-3.80231 5.9071-3.80231.82764 0 1.66846.15918 2.479.49512l1.66455.68848c.80763.33495 1.19288 1.26561.85841 2.07323zm-13.25671 6.65875c-1.47998 0-2.68005-1.19-2.69006-2.67004v-.00995c0-1.46736 1.21156-2.66003 2.69006-2.66003 1.46939 0 2.66003 1.2116 2.66003 2.66003v.00995c-.01001 1.48004-1.20007 2.67004-2.66003 2.67004zm-2.05628-8.44946v-5.47882h4.08398v5.47882c-.42383.52496-.77759 1.10968-1.06189 1.73859-.30872-.08923-.63733-.12915-.96582-.12915-.33997 0-.68005.04004-.98999.13-.00122.00024-.00232.00092-.00354.00116-.28442-.6297-.63842-1.21509-1.06274-1.7406zm-.31213 2.33856c-.00049.00037-.0011.00049-.00159.00085-.53003.37006-.96997.85004-1.29004 1.41003l-4.65991-1.92999c-.38013-.15002-.82007.01996-.97998.40997-.16016.38.0199.82001.40991.98004l4.75 1.96997c-.04004.19-.05005.39001-.05005.59003 0 .40948.06006.79889.16968 1.16858l-.08276.0343c-3.31006 1.37109-7.12158-.20605-8.49268-3.51758l-.68945-1.66406c-.33447-.80762.05078-1.73828.8584-2.07227l1.66455-.68945c3.23743-1.34233 6.94995.14283 8.39392 3.30958zm-11.51465 1.89881c.57825 1.2912 1.46936 2.38251 2.59167 3.1955l-.8894.88947h-6.41162v-4.08496h4.70935zm3.92957 3.97833c.10107.04675.19812.09955.30151.1424 1.91163.79226 4.08165.845 6.12305.00098l.18994-.07867c.34985.46936.79907.85907 1.30847 1.14868l-6.27283 6.27277-.68066-3.30371c-.06006-.29297-.28955-.52246-.58301-.58301l-3.3042-.68164zm11.95483 1.21277c.50952-.27997.95898-.66949 1.3186-1.13904.00098-.00128.00159-.00293.00256-.00421l.17834.07385c.9873.4082 2.02441.61328 3.06152.61328s2.07422-.20508 3.06152-.61426c.10327-.04279.2002-.09558.30115-.14227l2.9176 2.91766-3.30371.68164c-.29346.06055-.52295.29004-.58301.58301l-.68115 3.30371zm9.2616-1.99549c1.1554-.83698 2.06848-1.96716 2.6449-3.30829h20.26196v4.08496h-22.13013zm-18.30457-22.43329c.3916-.64063 1.07617-.99414 1.77637-.99414.36914 0 .74316.09863 1.08057.30469l14.24573 8.70923h-22.00538zm-9.47839 9.51978h12.96375v4.06226c-.50928-.37103-1.0603-.69135-1.65723-.93848-1.97461-.81836-4.14844-.81738-6.12305-.00098l-1.66455.69043c-1.57178.65137-2.3208 2.45996-1.66992 4.03223l.1543.37244h-4.08326v-6.13794c0-1.14997.92993-2.07996 2.07996-2.07996zm-5.19983 18.47241c-.97998-.60011-1.28837-1.87786-.68848-2.85547l2.30835-3.776v7.62183zm3.11987 13.06757v-16.23712h4.91919l-1.23486 1.23499c-.42125.42125-.20498 1.14428.37891 1.26465l4.18359.8623.86182 4.18359c.12097.58785.84532.79823 1.26465.37891l4.67041-4.67059v15.06329h-12.96375c-1.15003-.00001-2.07996-.93-2.07996-2.08002zm41.21314 11.6004c-.28955.47363-.74609.80566-1.28564.93652-.53857.12891-1.09717.04297-1.5708-.24707l-14.24659-8.70984h22.00635zm9.4768-9.52039h-28.56225v-15.06335l4.67041 4.67065c.41935.41935 1.14369.2089 1.26465-.37891l.8623-4.18359 4.18311-.8623c.58342-.12027.80052-.84304.37891-1.26465l-1.34766-1.34766h20.63062v16.34979c-.00001 1.15003-.93006 2.08002-2.08009 2.08002zm5.89087-15.61633-2.31079 3.77979v-7.6272l1.62085.99097c.97754.59863 1.28711 1.87988.68994 2.85644z"></path><path d="m55.01973 40.67398h-10.85986c-.41406 0-.75.33594-.75.75s.33594.75.75.75h10.85986c.41406 0 .75-.33594.75-.75s-.33593-.75-.75-.75z"></path><path d="m55.01973 44.72086h-10.85986c-.41406 0-.75.33594-.75.75s.33594.75.75.75h10.85986c.41406 0 .75-.33594.75-.75s-.33593-.75-.75-.75z"></path><path d="m2.75118 5.52359h1.27295v1.27344c0 .41406.33594.75.75.75s.75-.33594.75-.75v-1.27344h1.27344c.41406 0 .75-.33594.75-.75s-.33594-.75-.75-.75h-1.27344v-1.27344c0-.41406-.33594-.75-.75-.75s-.75.33594-.75.75v1.27344h-1.27295c-.41406 0-.75.33594-.75.75s.33594.75.75.75z"></path><path d="m59.30196 61.9689h-1.27295v-1.27246c0-.41406-.33594-.75-.75-.75s-.75.33594-.75.75v1.27246h-1.27344c-.41406 0-.75.33594-.75.75s.33594.75.75.75h1.27344v1.27344c0 .41406.33594.75.75.75s.75-.33594.75-.75v-1.27344h1.27295c.41406 0 .75-.33594.75-.75s-.33594-.75-.75-.75z"></path><path d="m5.35518 60.49985c-1.51001 0-2.75 1.23999-2.75 2.75 0 1.51996 1.23999 2.75 2.75 2.75 1.52002 0 2.75-1.23004 2.75-2.75 0-1.51001-1.22998-2.75-2.75-2.75zm0 4c-.68994 0-1.25-.56-1.25-1.25s.56006-1.25 1.25-1.25 1.25.56 1.25 1.25-.56006 1.25-1.25 1.25z"></path><path d="m49.96517 10.99985c1.52002 0 2.75-1.23004 2.75-2.74005 0-1.51996-1.22998-2.75995-2.75-2.75995s-2.75 1.23999-2.75 2.75995c0 1.51001 1.22998 2.74005 2.75 2.74005zm0-4c.69006 0 1.25.57001 1.25 1.25995 0 .69-.55994 1.24005-1.25 1.24005s-1.25-.55005-1.25-1.24005c0-.68995.55993-1.25995 1.25-1.25995z"></path><path d="m9.92842 12.08511c.41406 0 .75-.33594.75-.75v-.28223c0-.41406-.33594-.75-.75-.75s-.75.33594-.75.75v.28223c0 .41407.33594.75.75.75z"></path><path d="m30.60469 5.66422c.41406 0 .75-.33594.75-.75v-.28223c0-.41406-.33594-.75-.75-.75s-.75.33594-.75.75v.28223c0 .41406.33594.75.75.75z"></path><path d="m39.37911 11.28629c.41406 0 .75-.33594.75-.75v-.28223c0-.41406-.33594-.75-.75-.75s-.75.33594-.75.75v.28223c0 .41406.33594.75.75.75z"></path><path d="m64.25996 18.78726c.41406 0 .75-.33594.75-.75v-.28223c0-.41406-.33594-.75-.75-.75s-.75.33594-.75.75v.28223c.00001.41406.33595.75.75.75z"></path><path d="m59.30196 5.66422c.41406 0 .75-.33594.75-.75v-.28223c0-.41406-.33594-.75-.75-.75s-.75.33594-.75.75v.28223c0 .41406.33594.75.75.75z"></path><path d="m24.8044 55.39468c-.41406 0-.75.33594-.75.75v.28223c0 .41406.33594.75.75.75s.75-.33594.75-.75v-.28223c0-.41406-.33594-.75-.75-.75z"></path><path d="m34.00069 62.35855c-.41406 0-.75.33594-.75.75v.28223c0 .41406.33594.75.75.75s.75-.33594.75-.75v-.28223c0-.41406-.33594-.75-.75-.75z"></path><path d="m63.54903 55.25308c-.41406 0-.75.33594-.75.75v.2832c0 .41406.33594.75.75.75s.75-.33594.75-.75v-.2832c0-.41406-.33594-.75-.75-.75z"></path><path d="m14.68038 58.73648c-.41406 0-.75.33594-.75.75v.28223c0 .41406.33594.75.75.75s.75-.33594.75-.75v-.28223c0-.41406-.33594-.75-.75-.75z"></path><path d="m4.2878 51.70621v-.28223c0-.41406-.33594-.75-.75-.75s-.75.33594-.75.75v.28223c0 .41406.33594.75.75.75s.75-.33594.75-.75z"></path></g></svg>